<svg width="77" height="77" viewBox="0 0 77 77" fill="none" xmlns="http://www.w3.org/2000/svg">
  <circle cx="38.5" cy="38.5" r="38.5" fill="transparent"/>
  <path d="M31.281 29.797h2.344v2.344h-2.344v-2.344zM24.25 56.828c0 .648.524 1.172 1.172 1.172h14.062c.648 0 1.172-.524 1.172-1.172V39.172H24.25v17.656z" fill="#fff"/>
  <path d="M39.484 22.766H25.422c-.648 0-1.172.524-1.172 1.172v12.89h16.406v-12.89c0-.648-.524-1.172-1.172-1.172zM35.97 33.313c0 .647-.525 1.171-1.172 1.171h-4.688a1.171 1.171 0 01-1.172-1.172v-4.687c0-.648.525-1.172 1.172-1.172h4.688c.648 0 1.172.524 1.172 1.172v4.688zM43 36.795v6.628l6.546 6.546a2.327 2.327 0 001.657.687c.626 0 1.214-.244 1.657-.687.913-.913.913-2.4 0-3.314L43 36.795zM34.797 18h-4.688a3.51 3.51 0 00-3.3 2.344h11.288a3.51 3.51 0 00-3.3-2.344zM59.406 28.625H43v4.688h16.406a2.347 2.347 0 002.344-2.344 2.347 2.347 0 00-2.344-2.344z" fill="#fff"/>
</svg>