<svg width="77" height="78" viewBox="0 0 77 78" fill="none" xmlns="http://www.w3.org/2000/svg">
<ellipse cx="38.2502" cy="38.6667" rx="37.9167" ry="38.5" fill="transparent"/>
<path d="M27.8952 19.2523C27.8952 20.2287 27.5073 21.1651 26.8169 21.8555C26.1265 22.5459 25.1901 22.9338 24.2137 22.9338C23.2373 22.9338 22.3009 22.5459 21.6105 21.8555C20.9201 21.1651 20.5322 20.2287 20.5322 19.2523C20.5322 18.2759 20.9201 17.3395 21.6105 16.6491C22.3009 15.9587 23.2373 15.5708 24.2137 15.5708C25.1901 15.5708 26.1265 15.9587 26.8169 16.6491C27.5073 17.3395 27.8952 18.2759 27.8952 19.2523Z" fill="white"/>
<path d="M32.9109 29.6731V27.8131C32.911 27.3479 32.8194 26.8872 32.6414 26.4574C32.4635 26.0275 32.2025 25.637 31.8736 25.308C31.5446 24.9791 31.1541 24.7181 30.7242 24.5401C30.2944 24.3622 29.8337 24.2706 29.3685 24.2707H19.0483C18.1088 24.2707 17.2078 24.6439 16.5435 25.3082C15.8791 25.9726 15.5059 26.8736 15.5059 27.8131V29.6731C15.5021 29.7159 15.5001 29.7588 15.5 29.8018V40.5111C15.5 40.9106 15.6587 41.2938 15.9412 41.5763C16.2237 41.8588 16.6068 42.0175 17.0063 42.0175C17.4058 42.0175 17.789 41.8588 18.0715 41.5763C18.354 41.2938 18.5127 40.9106 18.5127 40.5111V29.9609H19.5226V42.0182H19.53V59.0562C19.5401 59.5822 19.7561 60.0832 20.1316 60.4516C20.5072 60.82 21.0122 61.0264 21.5383 61.0264C22.0643 61.0264 22.5694 60.82 22.945 60.4516C23.3205 60.0832 23.5365 59.5822 23.5466 59.0562V42.0182H24.8717V59.0562C24.8717 59.5888 25.0832 60.0995 25.4598 60.4761C25.8364 60.8526 26.3471 61.0642 26.8796 61.0642C27.4122 61.0642 27.9229 60.8526 28.2995 60.4761C28.676 60.0995 28.8876 59.5888 28.8876 59.0562V42.0182H28.8935V29.9609H29.9034V40.5111C29.9157 40.9025 30.0797 41.2737 30.3609 41.5462C30.6421 41.8186 31.0182 41.971 31.4097 41.971C31.8013 41.971 32.1774 41.8186 32.4586 41.5462C32.7397 41.2737 32.9038 40.9025 32.9161 40.5111V29.8018C32.9166 29.7588 32.9149 29.7159 32.9109 29.6731Z" fill="white"/>
<path d="M50.6263 22.6963C51.3545 22.696 52.0662 22.4798 52.6714 22.075C53.2767 21.6703 53.7483 21.0951 54.0267 20.4223C54.305 19.7495 54.3777 19.0092 54.2353 18.2951C54.093 17.5811 53.7421 16.9252 53.227 16.4106C52.7119 15.8959 52.0558 15.5455 51.3416 15.4038C50.6274 15.262 49.8872 15.3352 49.2146 15.6141C48.542 15.893 47.9673 16.3651 47.563 16.9707C47.1587 17.5763 46.9431 18.2882 46.9434 19.0163C46.9436 19.4997 47.039 19.9784 47.2242 20.425C47.4094 20.8716 47.6807 21.2773 48.0227 21.6191C48.3647 21.9608 48.7706 22.2318 49.2174 22.4166C49.6641 22.6015 50.1429 22.6965 50.6263 22.6963Z" fill="white"/>
<path d="M60.9484 38.5691L57.6457 26.3186C57.6156 26.2091 57.5731 26.1034 57.5192 26.0034C57.3315 25.4286 56.9669 24.9278 56.4775 24.5725C55.9882 24.2172 55.3991 24.0256 54.7944 24.0251H46.4355C45.8044 24.0257 45.191 24.2345 44.6905 24.6191C44.19 25.0036 43.8303 25.5425 43.667 26.1522C43.6448 26.2062 43.6263 26.2624 43.61 26.3201L40.3658 38.5691C40.3146 38.7601 40.3015 38.9593 40.3273 39.1554C40.3531 39.3514 40.4173 39.5405 40.5161 39.7118C40.615 39.883 40.7466 40.0332 40.9035 40.1536C41.0604 40.274 41.2394 40.3623 41.4304 40.4135C41.6215 40.4647 41.8207 40.4778 42.0168 40.452C42.2128 40.4262 42.4019 40.362 42.5732 40.2632C42.7444 40.1643 42.8946 40.0327 43.015 39.8758C43.1354 39.7189 43.2237 39.5399 43.2749 39.3489L45.8237 29.7264H46.8854L42.2606 47.1358H46.6175V59.1554C46.6175 59.5992 46.7939 60.0249 47.1077 60.3388C47.4216 60.6526 47.8472 60.8289 48.2911 60.8289C48.7349 60.8289 49.1606 60.6526 49.4744 60.3388C49.7883 60.0249 49.9646 59.5992 49.9646 59.1554V47.1358H51.2963V59.1554C51.3093 59.5906 51.4913 60.0037 51.8037 60.307C52.1162 60.6103 52.5345 60.7799 52.9699 60.7799C53.4053 60.7799 53.8236 60.6103 54.1361 60.307C54.4485 60.0037 54.6305 59.5906 54.6434 59.1554V47.1358H58.9982L54.3564 29.7264H55.4454L58.0393 39.3489C58.143 39.7345 58.3955 40.0631 58.7413 40.2628C59.0871 40.4624 59.498 40.5166 59.8838 40.4135C60.2695 40.31 60.5984 40.0576 60.7981 39.7117C60.9979 39.3659 61.0522 38.9549 60.9492 38.5691H60.9484Z" fill="white"/>
</svg>
