<svg width="78" height="78" viewBox="0 0 78 78" fill="none" xmlns="http://www.w3.org/2000/svg">
<circle cx="38.667" cy="38.6667" r="38.5" fill="transparent"/>
<path d="M43.7173 35.3046L33.3764 27.9212C31.9286 26.8871 30.0052 26.8871 28.5782 27.9212L18.2373 35.3046C17.1411 36.0905 16.5 37.3314 16.5 38.6757V55.1592C16.5 56.2967 17.4307 57.2273 18.5682 57.2273H26.8409V44.8182H35.1136V57.2273H43.3864C44.5239 57.2273 45.4545 56.2967 45.4545 55.1592V38.6757C45.4545 37.3314 44.8134 36.0905 43.7173 35.3046Z" fill="white"/>
<path d="M57.9258 20H39.1881C36.9338 20 35.1138 21.82 35.1138 24.0743L35.2999 24.2605C35.4654 24.3639 35.6308 24.4466 35.7963 24.55L46.1372 31.9334C47.709 33.0502 48.8258 34.7048 49.3222 36.5455H53.7274V40.6818H49.591V44.8182H53.7274V48.9545H49.591V57.2273H57.9258C60.1801 57.2273 62.0001 55.4073 62.0001 53.153V24.0743C62.0001 21.82 60.1801 20 57.9258 20ZM53.7274 32.4091H49.591V28.2727H53.7274V32.4091Z" fill="white"/>
</svg>
