<svg width="78" height="78" viewBox="0 0 78 78" fill="none" xmlns="http://www.w3.org/2000/svg">
<circle cx="39.3335" cy="39.3334" r="38.5" fill="transparent"/>
<path d="M58.7483 34.7271L57.6828 32.0634L55.7936 27.34C54.1718 23.2857 50.3033 20.6666 45.9363 20.6666H33.8977C29.5316 20.6666 25.6622 23.2857 24.0403 27.34L22.1511 32.0634L21.0857 34.7271C18.7993 35.5963 17.167 37.7917 17.167 40.3833V44.9333C17.167 46.4613 17.7509 47.8406 18.6837 48.9079V54.0333C18.6837 55.7083 20.042 57.0666 21.717 57.0666H24.7503C26.4253 57.0666 27.7837 55.7083 27.7837 54.0333V51H52.0503V54.0333C52.0503 55.7083 53.4087 57.0666 55.0837 57.0666H58.117C59.792 57.0666 61.1503 55.7083 61.1503 54.0333V48.9079C62.0831 47.8415 62.667 46.4623 62.667 44.9333V40.3833C62.667 37.7917 61.0347 35.5963 58.7483 34.7271ZM29.6729 29.5932C30.3639 27.8661 32.037 26.7333 33.8977 26.7333H45.9363C47.797 26.7333 49.4701 27.8661 50.1611 29.5932L52.0503 34.3166H27.7837L29.6729 29.5932ZM24.7503 44.9143C22.9303 44.9143 21.717 43.7048 21.717 41.8905C21.717 40.0762 22.9303 38.8666 24.7503 38.8666C26.5703 38.8666 29.3003 41.5881 29.3003 43.4024C29.3003 45.2167 26.5703 44.9143 24.7503 44.9143ZM55.0837 44.9143C53.2637 44.9143 50.5337 45.2167 50.5337 43.4024C50.5337 41.5881 53.2637 38.8666 55.0837 38.8666C56.9037 38.8666 58.117 40.0762 58.117 41.8905C58.117 43.7048 56.9037 44.9143 55.0837 44.9143Z" fill="white"/>
</svg>
