<svg width="78" height="79" viewBox="0 0 78 79" fill="none" xmlns="http://www.w3.org/2000/svg">
<ellipse cx="39.3335" cy="39.9167" rx="38.5" ry="39.0833" fill="transparent"/>
<path fill-rule="evenodd" clip-rule="evenodd" d="M26.1111 37.4064C26.1141 38.3469 26.374 39.2686 26.8625 40.0722C27.3511 40.8758 28.0499 41.5307 28.8835 41.9662C29.717 42.4017 30.6537 42.6012 31.5923 42.5433C32.531 42.4854 33.436 42.1722 34.2097 41.6375L34.1767 42.0342C34.1767 44.877 36.4906 47.1909 39.3333 47.1909C42.1761 47.1909 44.49 44.877 44.49 42.0342L44.4569 41.6375C45.2833 42.1995 46.3081 42.5631 47.3989 42.5631C50.2417 42.5631 52.5556 40.2492 52.5556 37.4064C52.5556 35.357 51.3325 33.572 49.6136 32.7456C51.3325 31.9523 52.5556 30.1673 52.5556 28.1178C52.5525 27.1774 52.2927 26.2556 51.8041 25.452C51.3155 24.6484 50.6168 23.9936 49.7832 23.5581C48.9497 23.1226 48.013 22.923 47.0743 22.9809C46.1357 23.0389 45.2306 23.3521 44.4569 23.8867L44.49 23.49C44.49 20.6473 42.1761 18.3334 39.3333 18.3334C36.4906 18.3334 34.1767 20.6473 34.1767 23.49L34.2097 23.8867C33.436 23.3521 32.531 23.0389 31.5923 22.9809C30.6537 22.923 29.717 23.1226 28.8835 23.5581C28.0499 23.9936 27.3511 24.6484 26.8625 25.452C26.374 26.2556 26.1141 27.1774 26.1111 28.1178C26.1111 30.1673 27.3342 31.9523 29.0531 32.7787C27.3342 33.572 26.1111 35.357 26.1111 37.4064ZM59.1667 43.9184C48.2253 43.9184 39.3333 52.8103 39.3333 63.7517C50.2747 63.7517 59.1667 54.8598 59.1667 43.9184ZM39.3333 63.7517C39.3333 52.8103 30.4414 43.9184 19.5 43.9184C19.5 54.8598 28.3919 63.7517 39.3333 63.7517ZM39.3334 27.5888C42.1762 27.5888 44.4901 29.9027 44.4901 32.7455C44.4901 35.5883 42.1762 37.9022 39.3334 37.9022C36.4906 37.9022 34.1768 35.5883 34.1768 32.7455C34.1768 29.9027 36.4906 27.5888 39.3334 27.5888Z" fill="white"/>
</svg>
