<svg width="76" height="79" viewBox="0 0 76 79" fill="none" xmlns="http://www.w3.org/2000/svg">
<ellipse cx="37.9167" cy="39.0833" rx="37.9167" ry="39.0833" fill="transparent"/>
<path d="M26.0237 55.1547L33.9194 45.5803L37.5311 50.1871L30.5697 59.0399C27.9036 62.4275 22.9702 58.8576 26.0237 55.1547ZM35.2448 33.3513C35.9968 30.8979 35.6512 28.8015 32.8256 25.6873L25.9211 17.3814C24.9413 16.2306 22.6322 17.9207 23.5969 19.3145L29.1189 26.1164C30.1633 27.3849 28.2226 29.0635 27.1441 27.7571L21.4321 20.7235C20.3687 19.5044 18.1698 21.1147 19.2825 22.5085C20.8928 24.4454 23.3842 27.609 24.9945 29.5459C26.111 30.6814 24.4134 32.3639 23.312 30.9473L17.6419 23.9592C16.8101 23.0554 15.4505 23.6174 15.0897 24.6732C14.7023 25.8012 15.6556 26.6253 16.305 27.4608L22.6322 35.6338C24.5957 37.9087 26.7909 39.2569 29.343 38.4936C29.7342 38.3758 30.2127 38.1366 30.7254 37.8213L47.7245 59.7652C48.6398 60.9464 50.4058 61.0717 51.5528 60.1184L51.8148 59.902C53.1061 58.8272 53.3149 56.8637 52.2098 55.5952L34.208 34.9122C34.7321 34.3273 35.1157 33.7728 35.2448 33.3513ZM40.0567 38.1366L42.8557 34.7413C39.2554 25.8164 52.5972 13.9216 59.0649 19.3904C66.9226 26.0405 55.2442 42.0673 47.0371 38.1062L43.7216 42.318L40.0567 38.1366Z" fill="white"/>
</svg>
