<svg width="78" height="78" viewBox="0 0 78 78" fill="none" xmlns="http://www.w3.org/2000/svg">
<circle cx="39.3335" cy="39.3334" r="38.5" fill="transparent"/>
<path d="M19.442 20.6666H30.817C31.4204 20.6666 31.999 20.9063 32.4257 21.333C32.8523 21.7596 33.092 22.3383 33.092 22.9416V54.7916C33.092 55.395 32.8523 55.9736 32.4257 56.4003C31.999 56.8269 31.4204 57.0666 30.817 57.0666H19.442C18.8386 57.0666 18.26 56.8269 17.8333 56.4003C17.4067 55.9736 17.167 55.395 17.167 54.7916V22.9416C17.167 22.3383 17.4067 21.7596 17.8333 21.333C18.26 20.9063 18.8386 20.6666 19.442 20.6666ZM19.442 45.6916V50.2416H23.992V45.6916H19.442ZM39.917 27.4916H58.117C59.3237 27.4916 60.481 27.971 61.3343 28.8243C62.1876 29.6776 62.667 30.8349 62.667 32.0416V45.6916C62.667 46.8984 62.1876 48.0557 61.3343 48.909C60.481 49.7623 59.3237 50.2416 58.117 50.2416H39.917C38.7103 50.2416 37.5529 49.7623 36.6997 48.909C35.8464 48.0557 35.367 46.8984 35.367 45.6916V32.0416C35.367 30.8349 35.8464 29.6776 36.6997 28.8243C37.5529 27.971 38.7103 27.4916 39.917 27.4916ZM44.467 52.5166H53.567C54.1704 52.5166 54.749 52.7563 55.1757 53.183C55.6023 53.6096 55.842 54.1883 55.842 54.7916C55.842 55.395 55.6023 55.9736 55.1757 56.4003C54.749 56.8269 54.1704 57.0666 53.567 57.0666H44.467C43.8636 57.0666 43.285 56.8269 42.8583 56.4003C42.4317 55.9736 42.192 55.395 42.192 54.7916C42.192 54.1883 42.4317 53.6096 42.8583 53.183C43.285 52.7563 43.8636 52.5166 44.467 52.5166Z" fill="white"/>
</svg>
