<svg width="77" height="79" viewBox="0 0 77 79" fill="none" xmlns="http://www.w3.org/2000/svg">
<ellipse cx="38.5" cy="39.0833" rx="38.5" ry="39.0833" fill="transparent"/>
<path fill-rule="evenodd" clip-rule="evenodd" d="M17.4111 25.5H20.1142C20.7992 25.5 21.3583 26.0776 21.3583 26.7441V42.9513H35.1809L39.1206 29.088H54.6169C58.4937 29.088 61.667 32.2687 61.667 36.1381V43.1883H61.6596C61.6633 43.2327 61.667 43.2771 61.667 43.3253V54.6151H56.4757V49.3164H21.3583V54.3744H16.167V26.7441C16.167 26.0591 16.7261 25.5 17.4111 25.5ZM29.2897 29.3398C32.4815 29.3398 35.0698 31.9281 35.0698 35.1199C35.0698 38.3117 32.4815 40.8999 29.2897 40.8999C26.0979 40.8999 23.5096 38.3117 23.5096 35.1199C23.5096 31.9281 26.0979 29.3398 29.2897 29.3398Z" fill="white"/>
</svg>
